<svg xmlns="http://www.w3.org/2000/svg">
  <symbol id="check-mark" viewBox="0 0 12 12">
    <path fill="currentColor" fill-rule="evenodd" d="M11.632.725a1 1 0 0 1 .143 1.407l-7.342 9a1 1 0 0 1-1.528.025L.246 8.11a1 1 0 1 1 1.508-1.315L3.633 8.95 10.225.868a1 1 0 0 1 1.407-.143z" clip-rule="evenodd"/>
  </symbol>
  <symbol id="cross" viewBox="0 0 12 12">
    <path fill="currentColor" fill-rule="evenodd" d="M6 12A6 6 0 1 0 6 0a6 6 0 0 0 0 12zM3.401 3.254a1 1 0 0 1 1.414 0L6.02 4.457l1.203-1.203a1 1 0 1 1 1.415 1.414L7.433 5.87l1.204 1.204a1 1 0 0 1-1.415 1.414L6.02 7.286 4.815 8.489a1 1 0 0 1-1.414-1.414L4.605 5.87 3.4 4.668a1 1 0 0 1 0-1.414z" clip-rule="evenodd"/>
  </symbol>
  <symbol id="up-arrow" viewBox="0 0 12 12">
    <path fill="currentColor" fill-rule="evenodd" d="M1.802 3.657L5.271.293a1.054 1.054 0 0 1 1.458 0l3.469 3.364a.979.979 0 0 1 0 1.414c-.403.39-1.056.39-1.458 0L7.03 3.414V11c0 .552-.462 1-1.031 1-.57 0-1.031-.448-1.031-1V3.414L3.26 5.071c-.402.39-1.055.39-1.458 0a.979.979 0 0 1 0-1.414z" clip-rule="evenodd"/>
  </symbol>
  <symbol id="not-allowed" viewBox="0 0 12 12">
    <path fill="currentColor" fill-rule="evenodd" d="M12 6A6 6 0 1 1 0 6a6 6 0 0 1 12 0zM9.652 6a3.652 3.652 0 0 1-5.39 3.213l4.95-4.951c.281.517.44 1.109.44 1.738zM2.831 7.816L7.816 2.83A3.652 3.652 0 0 0 2.83 7.816z" clip-rule="evenodd"/>
  </symbol>
</svg>