<svg width="96" height="38" viewBox="0 0 96 38" fill="none" xmlns="http://www.w3.org/2000/svg">
<g filter="url(#filter0_d_14_12)">
<rect x="4" width="88" height="30" rx="15" fill="white"/>
<path d="M25.756 8.98H24.172V11.416H22.408C22.084 10.228 20.98 9.436 19.564 9.436C17.908 9.436 16.66 10.54 16.66 12.076C16.66 13.612 17.908 14.716 19.564 14.716C20.98 14.716 22.132 13.888 22.42 12.7H24.172V14.92H25.756V8.98ZM19.564 13.396C18.748 13.396 18.172 12.904 18.172 12.076C18.172 11.248 18.748 10.756 19.564 10.756C20.38 10.756 20.968 11.248 20.968 12.076C20.968 12.904 20.38 13.396 19.564 13.396ZM24.184 15.4V16.456H20.008V15.4H18.436V19.9H25.756V15.4H24.184ZM24.184 17.656V18.652H20.008V17.656H24.184ZM37.5631 17.524H33.3391V15.88H36.6871V14.608H30.2791V13.372H36.4351V9.688H28.6951V10.948H34.8751V12.136H28.7071V15.88H31.7551V17.524H27.5551V18.82H37.5631V17.524ZM47.5341 15.34V14.08H41.3421V11.176H47.4501V9.892H39.7581V15.34H47.5341ZM48.6021 17.416H38.5941V18.712H48.6021V17.416ZM52.7839 12.34L53.3119 13.564C55.4359 13.384 56.7559 12.616 57.3439 11.56C57.9319 12.604 59.2879 13.384 61.3639 13.564L61.9159 12.34C59.8519 12.148 58.7839 11.452 58.4959 10.696H61.4359V9.436H53.2639V10.696H56.1919C55.9039 11.452 54.8359 12.148 52.7839 12.34ZM58.1359 15.256H62.3359V13.996H52.3519V15.256H56.5519V16.06C54.6199 16.216 53.4919 16.888 53.4919 18.04C53.4919 19.324 54.9319 20.044 57.3199 20.044C59.7079 20.044 61.1599 19.324 61.1599 18.04C61.1599 16.888 60.0679 16.228 58.1359 16.072V15.256ZM59.5519 18.04C59.5519 18.604 58.8199 18.832 57.3199 18.832C55.8199 18.832 55.0879 18.604 55.0879 18.04C55.0879 17.476 55.8199 17.236 57.3199 17.236C58.8199 17.236 59.5519 17.476 59.5519 18.04Z" fill="#525577"/>
<path d="M77.9646 12.8712C77.6145 12.2192 77.109 11.6636 76.493 11.2536C75.8769 10.8437 75.1692 10.592 74.4326 10.5208C73.696 10.4497 72.9532 10.5613 72.27 10.8458C71.5869 11.1303 70.9844 11.5789 70.516 12.1518C70.0477 12.7248 69.7278 13.4044 69.5848 14.1305C69.4418 14.8566 69.4801 15.6067 69.6963 16.3145C69.9124 17.0222 70.2998 17.6657 70.8241 18.188C71.3483 18.7103 71.9933 19.0952 72.7019 19.3087L73.1124 17.9462C72.6279 17.8002 72.1869 17.537 71.8284 17.1799C71.4699 16.8227 71.205 16.3827 71.0572 15.8988C70.9094 15.4148 70.8832 14.9019 70.981 14.4054C71.0788 13.909 71.2975 13.4443 71.6178 13.0525C71.938 12.6608 72.35 12.354 72.8171 12.1595C73.2842 11.965 73.7921 11.8886 74.2958 11.9373C74.7994 11.9859 75.2833 12.158 75.7046 12.4384C76.1259 12.7187 76.4715 13.0986 76.7109 13.5444L77.9646 12.8712Z" fill="#525577"/>
</g>
<defs>
<filter id="filter0_d_14_12" x="0" y="0" width="96" height="38" filterUnits="userSpaceOnUse" color-interpolation-filters="sRGB">
<feFlood flood-opacity="0" result="BackgroundImageFix"/>
<feColorMatrix in="SourceAlpha" type="matrix" values="0 0 0 0 0 0 0 0 0 0 0 0 0 0 0 0 0 0 127 0" result="hardAlpha"/>
<feOffset dy="4"/>
<feGaussianBlur stdDeviation="2"/>
<feColorMatrix type="matrix" values="0 0 0 0 0.859271 0 0 0 0 0.86751 0 0 0 0 0.941667 0 0 0 1 0"/>
<feBlend mode="normal" in2="BackgroundImageFix" result="effect1_dropShadow_14_12"/>
<feBlend mode="normal" in="SourceGraphic" in2="effect1_dropShadow_14_12" result="shape"/>
</filter>
</defs>
</svg>
