<svg width="96" height="38" viewBox="0 0 96 38" fill="none" xmlns="http://www.w3.org/2000/svg">
<g filter="url(#filter0_d_15_56)">
<rect x="4" width="88" height="30" rx="15" fill="white"/>
<path d="M25.756 8.98H24.172V11.416H22.408C22.084 10.228 20.98 9.436 19.564 9.436C17.908 9.436 16.66 10.54 16.66 12.076C16.66 13.612 17.908 14.716 19.564 14.716C20.98 14.716 22.132 13.888 22.42 12.7H24.172V14.92H25.756V8.98ZM19.564 13.396C18.748 13.396 18.172 12.904 18.172 12.076C18.172 11.248 18.748 10.756 19.564 10.756C20.38 10.756 20.968 11.248 20.968 12.076C20.968 12.904 20.38 13.396 19.564 13.396ZM24.184 15.4V16.456H20.008V15.4H18.436V19.9H25.756V15.4H24.184ZM24.184 17.656V18.652H20.008V17.656H24.184ZM37.5631 17.524H33.3391V15.88H36.6871V14.608H30.2791V13.372H36.4351V9.688H28.6951V10.948H34.8751V12.136H28.7071V15.88H31.7551V17.524H27.5551V18.82H37.5631V17.524ZM47.5341 15.34V14.08H41.3421V11.176H47.4501V9.892H39.7581V15.34H47.5341ZM48.6021 17.416H38.5941V18.712H48.6021V17.416Z" fill="#ADAEB6"/>
<path fill-rule="evenodd" clip-rule="evenodd" d="M80 15C80 18.3137 77.3137 21 74 21C70.6863 21 68 18.3137 68 15C68 11.6863 70.6863 9 74 9C77.3137 9 80 11.6863 80 15ZM77.6522 15C77.6522 17.0171 76.0171 18.6522 74 18.6522C73.3708 18.6522 72.7788 18.4931 72.262 18.2129L77.2129 13.2619C77.4931 13.7788 77.6522 14.3708 77.6522 15ZM70.8305 16.8159L75.8159 11.8305C75.281 11.5234 74.661 11.3478 74 11.3478C71.983 11.3478 70.3478 12.983 70.3478 15C70.3478 15.661 70.5234 16.281 70.8305 16.8159Z" fill="#ADAEB6"/>
</g>
<defs>
<filter id="filter0_d_15_56" x="0" y="0" width="96" height="38" filterUnits="userSpaceOnUse" color-interpolation-filters="sRGB">
<feFlood flood-opacity="0" result="BackgroundImageFix"/>
<feColorMatrix in="SourceAlpha" type="matrix" values="0 0 0 0 0 0 0 0 0 0 0 0 0 0 0 0 0 0 127 0" result="hardAlpha"/>
<feOffset dy="4"/>
<feGaussianBlur stdDeviation="2"/>
<feColorMatrix type="matrix" values="0 0 0 0 0.859271 0 0 0 0 0.86751 0 0 0 0 0.941667 0 0 0 1 0"/>
<feBlend mode="normal" in2="BackgroundImageFix" result="effect1_dropShadow_15_56"/>
<feBlend mode="normal" in="SourceGraphic" in2="effect1_dropShadow_15_56" result="shape"/>
</filter>
</defs>
</svg>
