<svg width="96" height="38" viewBox="0 0 96 38" fill="none" xmlns="http://www.w3.org/2000/svg">
<g filter="url(#filter0_d_14_17)">
<rect x="4" width="88" height="30" rx="15" fill="white"/>
<path d="M25.684 14.56V8.992H24.1V14.56H25.684ZM22.54 14.428L23.296 13.192C21.508 12.676 20.716 11.368 20.716 10.072V9.244H19.108V10.072C19.108 11.416 18.292 12.796 16.468 13.372L17.236 14.608C18.532 14.212 19.42 13.384 19.936 12.328C20.428 13.288 21.28 14.056 22.54 14.428ZM25.972 18.724H19.912V18.04H25.696V15.052H18.328V16.264H24.124V16.912H18.34V19.948H25.972V18.724ZM37.0351 8.98H35.5351V13.216H34.6831V9.184H33.2191V19.516H34.6831V14.5H35.5351V20.044H37.0351V8.98ZM31.9831 16.06V11.488H32.6791V10.216H27.6391V11.488H28.3231V16.24H27.4471L27.6151 17.524C28.9591 17.524 31.1791 17.476 32.8711 17.128L32.7511 15.976C32.5111 16.012 32.2591 16.024 31.9831 16.06ZM29.7391 16.204V11.488H30.5671V16.168L29.7391 16.204Z" fill="#525577"/>
</g>
<path fill-rule="evenodd" clip-rule="evenodd" d="M74 21C77.3137 21 80 18.3137 80 15C80 11.6863 77.3137 9 74 9C70.6863 9 68 11.6863 68 15C68 18.3137 70.6863 21 74 21ZM71.4011 12.2536C71.7916 11.8631 72.4248 11.8631 72.8153 12.2536L74.0188 13.4571L75.2224 12.2536C75.6129 11.8631 76.2461 11.8631 76.6366 12.2536C77.0271 12.6441 77.0271 13.2773 76.6366 13.6678L75.433 14.8714L76.6366 16.0749C77.0271 16.4654 77.0271 17.0986 76.6366 17.4891C76.2461 17.8796 75.6129 17.8796 75.2224 17.4891L74.0188 16.2856L72.8153 17.4891C72.4248 17.8796 71.7916 17.8796 71.4011 17.4891C71.0105 17.0986 71.0105 16.4654 71.4011 16.0749L72.6046 14.8714L71.4011 13.6678C71.0105 13.2773 71.0105 12.6441 71.4011 12.2536Z" fill="#525577"/>
<defs>
<filter id="filter0_d_14_17" x="0" y="0" width="96" height="38" filterUnits="userSpaceOnUse" color-interpolation-filters="sRGB">
<feFlood flood-opacity="0" result="BackgroundImageFix"/>
<feColorMatrix in="SourceAlpha" type="matrix" values="0 0 0 0 0 0 0 0 0 0 0 0 0 0 0 0 0 0 127 0" result="hardAlpha"/>
<feOffset dy="4"/>
<feGaussianBlur stdDeviation="2"/>
<feColorMatrix type="matrix" values="0 0 0 0 0.859271 0 0 0 0 0.86751 0 0 0 0 0.941667 0 0 0 1 0"/>
<feBlend mode="normal" in2="BackgroundImageFix" result="effect1_dropShadow_14_17"/>
<feBlend mode="normal" in="SourceGraphic" in2="effect1_dropShadow_14_17" result="shape"/>
</filter>
</defs>
</svg>
