<svg width="96" height="38" viewBox="0 0 96 38" fill="none" xmlns="http://www.w3.org/2000/svg">
<g filter="url(#filter0_d_1_8)">
<rect x="4" width="88" height="30" rx="15" fill="white"/>
<path d="M25.756 8.98H24.172V11.416H22.408C22.084 10.228 20.98 9.436 19.564 9.436C17.908 9.436 16.66 10.54 16.66 12.076C16.66 13.612 17.908 14.716 19.564 14.716C20.98 14.716 22.132 13.888 22.42 12.7H24.172V14.92H25.756V8.98ZM19.564 13.396C18.748 13.396 18.172 12.904 18.172 12.076C18.172 11.248 18.748 10.756 19.564 10.756C20.38 10.756 20.968 11.248 20.968 12.076C20.968 12.904 20.38 13.396 19.564 13.396ZM24.184 15.4V16.456H20.008V15.4H18.436V19.9H25.756V15.4H24.184ZM24.184 17.656V18.652H20.008V17.656H24.184ZM37.5631 17.524H33.3391V15.88H36.6871V14.608H30.2791V13.372H36.4351V9.688H28.6951V10.948H34.8751V12.136H28.7071V15.88H31.7551V17.524H27.5551V18.82H37.5631V17.524ZM47.5341 15.34V14.08H41.3421V11.176H47.4501V9.892H39.7581V15.34H47.5341ZM48.6021 17.416H38.5941V18.712H48.6021V17.416Z" fill="#525577"/>
<path fill-rule="evenodd" clip-rule="evenodd" d="M69.802 12.6569L73.2709 9.29289C73.6735 8.90237 74.3265 8.90237 74.7291 9.29289L78.198 12.6569C78.6007 13.0474 78.6007 13.6805 78.198 14.0711C77.7953 14.4616 77.1424 14.4616 76.7397 14.0711L75.0312 12.4142L75.0312 20C75.0312 20.5523 74.5695 21 74 21C73.4305 21 72.9688 20.5523 72.9688 20L72.9688 12.4142L71.2603 14.0711C70.8576 14.4616 70.2047 14.4616 69.802 14.0711C69.3993 13.6805 69.3993 13.0474 69.802 12.6569Z" fill="#525577"/>
</g>
<defs>
<filter id="filter0_d_1_8" x="0" y="0" width="96" height="38" filterUnits="userSpaceOnUse" color-interpolation-filters="sRGB">
<feFlood flood-opacity="0" result="BackgroundImageFix"/>
<feColorMatrix in="SourceAlpha" type="matrix" values="0 0 0 0 0 0 0 0 0 0 0 0 0 0 0 0 0 0 127 0" result="hardAlpha"/>
<feOffset dy="4"/>
<feGaussianBlur stdDeviation="2"/>
<feColorMatrix type="matrix" values="0 0 0 0 0.859271 0 0 0 0 0.86751 0 0 0 0 0.941667 0 0 0 1 0"/>
<feBlend mode="normal" in2="BackgroundImageFix" result="effect1_dropShadow_1_8"/>
<feBlend mode="normal" in="SourceGraphic" in2="effect1_dropShadow_1_8" result="shape"/>
</filter>
</defs>
</svg>
