<svg width="96" height="38" viewBox="0 0 96 38" fill="none" xmlns="http://www.w3.org/2000/svg">
<g filter="url(#filter0_d_1_26)">
<rect x="4" width="88" height="30" rx="15" fill="white"/>
<path d="M26.668 12.448H25.276V8.98H23.692V17.416H25.276V13.756H26.668V12.448ZM23.212 15.52L23.116 14.404C22.3 14.536 21.472 14.584 20.608 14.632V13.84C21.808 13.564 22.564 12.772 22.564 11.668C22.564 10.36 21.412 9.424 19.804 9.424C18.208 9.424 17.056 10.36 17.056 11.668C17.056 12.772 17.824 13.588 19.024 13.84V14.692C18.112 14.728 17.248 14.716 16.48 14.716L16.672 15.976C18.496 15.976 20.968 15.94 23.212 15.52ZM18.532 11.668C18.532 10.996 19.036 10.612 19.804 10.612C20.572 10.612 21.1 10.996 21.1 11.668C21.1 12.34 20.572 12.724 19.804 12.724C19.036 12.724 18.532 12.34 18.532 11.668ZM19.504 18.58V16.696H17.92V19.84H25.648V18.58H19.504ZM37.5631 17.524H35.1391V15.844H36.6871V14.572H30.2791V13.36H36.4351V9.688H28.6951V10.948H34.8751V12.124H28.7071V15.844H30.0871V17.524H27.5431V18.82H37.5631V17.524ZM31.6471 17.524V15.844H33.5791V17.524H31.6471Z" fill="#525577"/>
</g>
<path fill-rule="evenodd" clip-rule="evenodd" d="M79.6321 9.72515C80.0601 10.0743 80.124 10.7042 79.7749 11.1321L72.4331 20.1321C72.2468 20.3605 71.9693 20.4951 71.6747 20.4999C71.38 20.5047 71.0982 20.3794 70.9045 20.1573L68.2463 17.1089C67.8833 16.6926 67.9265 16.0609 68.3428 15.698C68.759 15.335 69.3907 15.3782 69.7537 15.7944L71.6327 17.9493L78.2251 9.86792C78.5742 9.43997 79.2042 9.37605 79.6321 9.72515Z" fill="#525577"/>
<defs>
<filter id="filter0_d_1_26" x="0" y="0" width="96" height="38" filterUnits="userSpaceOnUse" color-interpolation-filters="sRGB">
<feFlood flood-opacity="0" result="BackgroundImageFix"/>
<feColorMatrix in="SourceAlpha" type="matrix" values="0 0 0 0 0 0 0 0 0 0 0 0 0 0 0 0 0 0 127 0" result="hardAlpha"/>
<feOffset dy="4"/>
<feGaussianBlur stdDeviation="2"/>
<feColorMatrix type="matrix" values="0 0 0 0 0.859271 0 0 0 0 0.86751 0 0 0 0 0.941667 0 0 0 1 0"/>
<feBlend mode="normal" in2="BackgroundImageFix" result="effect1_dropShadow_1_26"/>
<feBlend mode="normal" in="SourceGraphic" in2="effect1_dropShadow_1_26" result="shape"/>
</filter>
</defs>
</svg>
